<svg width="80" height="80" viewBox="0 0 80 80" fill="none" xmlns="http://www.w3.org/2000/svg">
<rect width="80" height="80" rx="7" fill="#000214"/>
<path d="M45.7335 30.7911C46.4201 30.8012 46.9816 31.189 47.5535 31.583C47.3596 31.2629 46.6465 30.1091 46.705 29.2568C46.7763 28.2174 46.8037 27.5563 46.7763 27.5245C46.7473 27.4909 46.9736 27.5245 45.8792 27.5245C45.5145 27.5245 45.137 27.3989 44.9563 27.376C44.4257 27.3088 43.281 26.7028 42.9038 26.2661C42.5266 25.8293 42.415 25.7427 42.3818 25.7427C42.3487 25.7427 41.7504 26.3861 41.5561 26.8811C41.3618 27.376 41.1675 27.9699 41.2646 28.6134C41.3618 29.2568 41.9198 30.0563 42.5276 30.4942C43.162 30.9513 43.8912 30.9891 44.082 30.9891C44.6086 30.9891 45.2069 30.7834 45.7335 30.7911Z" fill="white"/>
<path d="M53.2141 36.0376C52.8208 35.3546 52.7953 35.0074 52.6797 34.3053C52.6491 34.1193 52.675 34.228 52.6792 33.9019C52.68 33.8411 52.6838 33.7802 52.6905 33.7198C52.7127 33.5187 52.7558 33.0464 52.6797 32.9689C52.5839 32.8712 51.7535 32.9663 51.2181 33.0639C51.2037 33.0666 51.1897 33.0689 51.1752 33.071C51.0303 33.0917 50.189 33.2033 49.8138 33.0679C49.4025 32.9194 48.2717 32.3195 47.9907 32.0285C48.3475 32.3979 48.3988 32.4295 48.648 32.8699C48.8674 33.2578 49.1359 33.6985 49.1823 34.1568C49.2587 34.9102 48.9954 35.913 49.2309 36.6315C49.4664 37.35 50.0567 38.067 50.7853 38.3638C51.5068 38.6579 52.0968 38.7103 52.8255 38.4628C53.6154 38.1945 54.2827 37.4411 54.2827 37.374C54.2828 37.3068 53.6783 36.8439 53.2141 36.0376Z" fill="white"/>
<path d="M47.9907 32.0285C48.3475 32.3979 48.3988 32.4295 48.648 32.8699C48.8674 33.2578 49.1359 33.6985 49.1823 34.1568C49.2587 34.9102 48.9954 35.913 49.2309 36.6315C49.4664 37.35 50.0567 38.067 50.7853 38.3638C51.5068 38.6579 52.0968 38.7103 52.8255 38.4628C53.6154 38.1945 54.2827 37.4411 54.2827 37.374C54.2828 37.3068 53.6783 36.8439 53.2141 36.0376C52.8208 35.3546 52.7953 35.0074 52.6797 34.3053C52.6491 34.1193 52.675 34.228 52.6792 33.9019C52.68 33.8411 52.6838 33.7802 52.6905 33.7198C52.7127 33.5187 52.7558 33.0464 52.6797 32.9689C52.5839 32.8712 51.7535 32.9663 51.2181 33.0639C51.2037 33.0666 51.1897 33.0689 51.1752 33.071C51.0303 33.0917 50.189 33.2033 49.8138 33.0679C49.4025 32.9194 48.2717 32.3195 47.9907 32.0285ZM47.9907 32.0285L47.5535 31.583M47.5535 31.583C46.9816 31.189 46.4201 30.8012 45.7335 30.7911C45.2069 30.7834 44.6086 30.9891 44.082 30.9891C43.8912 30.9891 43.162 30.9513 42.5276 30.4942C41.9198 30.0563 41.3618 29.2568 41.2646 28.6134C41.1675 27.9699 41.3618 27.376 41.5561 26.881C41.7504 26.3861 42.3487 25.7427 42.3818 25.7427C42.415 25.7427 42.5266 25.8293 42.9038 26.2661C43.281 26.7028 44.4257 27.3088 44.9563 27.376C45.137 27.3989 45.5145 27.5245 45.8792 27.5245C46.9736 27.5245 46.7473 27.4909 46.7763 27.5245C46.8037 27.5563 46.7763 28.2174 46.705 29.2568C46.6465 30.1091 47.3596 31.2629 47.5535 31.583Z" stroke="white" stroke-width="0.7"/>
<path d="M58.6286 34.8991C58.0367 33.9024 57.8426 33.3075 57.6571 32.2759C57.6038 31.9797 57.6085 31.2946 57.6571 30.593C57.6878 30.1487 57.9035 29.3043 57.8514 29.2072C57.8121 29.134 56.7984 29.3888 56.5398 29.4547C56.1192 29.5619 56.0387 29.5668 55.7141 29.5537C55.161 29.5313 55.0308 29.5062 54.4997 29.3557L54.354 29.3062C53.5907 29.0898 52.5379 28.4413 52.1195 28.0194C52.6507 28.555 53.2876 29.4107 53.5768 30.0982C53.7225 30.4446 53.9045 31.0386 53.9467 31.2946C54.1334 32.4267 53.7711 33.6123 54.0625 34.7012C54.354 35.7901 54.7652 36.397 55.6655 37.0274C56.6054 37.6856 57.3483 37.7738 58.4828 37.6708C59.6978 37.5604 60.4759 36.9779 60.4744 36.8789C60.4729 36.7799 59.3273 36.0756 58.6286 34.8991Z" fill="white"/>
<path d="M48.7193 26.0395C49.7251 26.0378 50.7764 26.9565 51.6232 27.5231C51.3317 27.0562 50.3125 25.6511 50.3077 24.7446C50.298 22.9368 50.5089 22.442 50.468 22.3959C50.4247 22.3471 49.9822 22.6428 48.0878 22.6739C47.5535 22.6827 46.8471 22.4253 46.582 22.3959C45.8033 22.3097 44.1815 21.2294 43.6189 20.5951C43.0562 19.9608 42.883 19.5931 42.8344 19.5939C42.7858 19.5947 42.1431 20.8428 42.0886 21.5862C42.0341 22.3296 42.0181 22.5121 42.311 23.3646C42.6039 24.2171 43.0586 24.9637 43.9589 25.5941C44.8988 26.2522 45.914 26.2916 46.1934 26.287C46.9647 26.2743 47.9478 26.0409 48.7193 26.0395Z" fill="white"/>
<path d="M52.1195 28.0194C52.6507 28.555 53.2876 29.4107 53.5768 30.0982C53.7225 30.4446 53.9045 31.0386 53.9467 31.2946C54.1334 32.4267 53.7711 33.6123 54.0625 34.7012C54.354 35.7901 54.7652 36.397 55.6655 37.0274C56.6054 37.6856 57.3483 37.7738 58.4828 37.6708C59.6978 37.5604 60.4759 36.9779 60.4744 36.8789C60.4729 36.7799 59.3273 36.0756 58.6286 34.8991C58.0367 33.9024 57.8426 33.3075 57.6571 32.2759C57.6038 31.9797 57.6085 31.2946 57.6571 30.593C57.6878 30.1487 57.9035 29.3043 57.8514 29.2072C57.8121 29.134 56.7984 29.3888 56.5398 29.4547C56.1192 29.5619 56.0387 29.5668 55.7141 29.5537C55.161 29.5313 55.0308 29.5062 54.4997 29.3557M52.1195 28.0194C52.5379 28.4413 53.5907 29.0898 54.354 29.3062M52.1195 28.0194C51.787 27.6901 52.3079 28.1813 51.9753 27.8519C51.6428 27.5226 51.9557 27.8525 51.6232 27.5231M51.6232 27.5231C50.7764 26.9565 49.7251 26.0378 48.7193 26.0395C47.9478 26.0409 46.9647 26.2743 46.1934 26.287C45.914 26.2916 44.8988 26.2522 43.9589 25.5941C43.0586 24.9637 42.6039 24.2171 42.311 23.3646C42.0182 22.5121 42.0341 22.3296 42.0886 21.5862C42.1431 20.8428 42.7858 19.5947 42.8344 19.5939C42.883 19.5931 43.0562 19.9608 43.6189 20.5951C44.1815 21.2294 45.8033 22.3097 46.582 22.3959C46.8471 22.4253 47.5535 22.6827 48.0878 22.6739C49.9822 22.6428 50.4247 22.3471 50.468 22.3959C50.5089 22.442 50.298 22.9368 50.3077 24.7446C50.3125 25.6511 51.3317 27.0562 51.6232 27.5231ZM54.354 29.3062L54.4997 29.3557M54.354 29.3062C54.3567 29.3069 54.497 29.3549 54.4997 29.3557" stroke="white" stroke-width="0.3"/>
<path d="M69.9931 31.405C70.054 29.8171 69.7148 28.8149 68.7788 27.5444C68.3984 27.0282 68.1613 26.9015 67.6615 26.505C66.9517 25.942 65.871 25.6716 65.6584 25.6225C65.6334 25.6167 65.6094 25.6123 65.5839 25.6086C65.3809 25.5789 64.3965 25.4422 63.7313 25.4821C63.1392 25.5177 62.1099 25.9316 61.0562 25.8719C60.3003 25.8291 59.8797 25.7027 59.1566 25.4855L59.1455 25.4822C58.3745 25.2505 57.6353 24.9616 57.0722 24.3768C57.7871 25.1192 58.0788 25.6693 58.578 26.5545C59.0177 27.3341 58.9221 28.0093 59.0152 28.9303C59.1682 30.4444 58.5433 31.2973 59.0152 32.7414C59.4871 34.1854 59.9348 34.93 61.1525 35.8101C62.4238 36.7288 63.2902 36.9646 64.8442 36.8494C66.5084 36.7261 67.3663 36.3776 68.4873 35.1171C69.5673 33.9029 69.9303 33.0432 69.9931 31.405Z" fill="white"/>
<path d="M51.4861 21.0606C52.8618 21.0808 54.1776 21.902 55.3235 22.694C55.3235 22.694 53.431 19.9518 53.7205 18.2195C54.0101 16.4872 54.3255 15.3745 53.7205 13.7354C53.3531 12.74 52.8966 12.0327 52.2668 11.4503C50.9727 10.2538 49.8284 9.89967 48.0858 10.0233C46.6195 10.1273 45.8629 10.4336 44.7827 11.4503C43.9919 12.1947 43.7076 12.7579 43.3255 13.5374C42.9433 14.317 42.7005 16.0802 43.0826 17.2495C43.4648 18.4189 44.0994 19.5866 45.317 20.4667C46.5883 21.3855 47.8008 21.4071 48.183 21.4071C49.2382 21.4071 50.4309 21.0452 51.4861 21.0606Z" fill="white"/>
<path d="M57.0722 24.3768C57.7871 25.1192 58.0788 25.6693 58.578 26.5545C59.0177 27.3341 58.9221 28.0093 59.0152 28.9303C59.1682 30.4444 58.5433 31.2973 59.0152 32.7414C59.4871 34.1854 59.9348 34.93 61.1525 35.8101C62.4238 36.7288 63.2902 36.9646 64.8442 36.8494C66.5084 36.7261 67.3663 36.3776 68.4873 35.1171C69.5673 33.9029 69.9303 33.0432 69.9931 31.405C70.054 29.8171 69.7148 28.8149 68.7788 27.5444C68.3984 27.0282 68.1613 26.9015 67.6615 26.505C66.9517 25.942 65.871 25.6716 65.6584 25.6225C65.6334 25.6167 65.6094 25.6123 65.5839 25.6086C65.3809 25.5789 64.3965 25.4422 63.7313 25.4821C63.1392 25.5177 62.1099 25.9316 61.0562 25.8719C60.3003 25.8291 59.8797 25.7027 59.1566 25.4855M57.0722 24.3768C57.6353 24.9616 58.3745 25.2505 59.1455 25.4822M57.0722 24.3768C56.6245 23.9201 56.257 23.6456 55.8092 23.1889C55.3616 22.7323 55.7712 23.1506 55.3235 22.694M55.3235 22.694C54.1776 21.902 52.8618 21.0808 51.4861 21.0606C50.4309 21.0452 49.2382 21.4071 48.183 21.4071C47.8008 21.4071 46.5883 21.3855 45.317 20.4667C44.0994 19.5867 43.4648 18.4189 43.0826 17.2495C42.7005 16.0802 42.9433 14.317 43.3255 13.5374C43.7076 12.7579 43.9919 12.1947 44.7827 11.4503C45.8629 10.4336 46.6195 10.1273 48.0858 10.0233C49.8284 9.89967 50.9727 10.2538 52.2668 11.4503C52.8966 12.0327 53.3531 12.74 53.7205 13.7354C54.3255 15.3745 54.0101 16.4872 53.7205 18.2195C53.431 19.9518 55.3235 22.694 55.3235 22.694ZM59.1455 25.4822L59.1566 25.4855M59.1455 25.4822C59.1492 25.4833 59.1529 25.4844 59.1566 25.4855" stroke="white" stroke-width="0.7"/>
<path d="M34.2665 49.2089C33.5799 49.1988 33.0184 48.811 32.4465 48.417C32.6404 48.7371 33.3535 49.8909 33.295 50.7432C33.2237 51.7826 33.1963 52.4437 33.2237 52.4755C33.2527 52.5091 33.0264 52.4755 34.1208 52.4755C34.4855 52.4755 34.863 52.6011 35.0437 52.624C35.5743 52.6912 36.719 53.2972 37.0962 53.7339C37.4734 54.1707 37.585 54.2573 37.6182 54.2573C37.6513 54.2573 38.2496 53.6139 38.4439 53.1189C38.6382 52.624 38.8325 52.0301 38.7354 51.3866C38.6382 50.7432 38.0802 49.9437 37.4724 49.5058C36.838 49.0487 36.1088 49.0109 35.918 49.0109C35.3914 49.0109 34.7931 49.2166 34.2665 49.2089Z" fill="white"/>
<path d="M26.7859 43.9624C27.1792 44.6454 27.2047 44.9926 27.3203 45.6947C27.3509 45.8807 27.325 45.772 27.3208 46.0981C27.32 46.1589 27.3162 46.2198 27.3095 46.2802C27.2873 46.4813 27.2442 46.9536 27.3203 47.0311C27.4161 47.1288 28.2465 47.0337 28.7819 46.9361C28.7963 46.9334 28.8103 46.9311 28.8248 46.929C28.9697 46.9083 29.811 46.7967 30.1862 46.9321C30.5975 47.0806 31.7283 47.6805 32.0093 47.9715C31.6525 47.6021 31.6012 47.5705 31.352 47.1301C31.1326 46.7422 30.8641 46.3015 30.8177 45.8432C30.7413 45.0898 31.0046 44.087 30.7691 43.3685C30.5336 42.65 29.9433 41.933 29.2147 41.6362C28.4932 41.3421 27.9032 41.2897 27.1745 41.5372C26.3846 41.8055 25.7173 42.5589 25.7173 42.626C25.7172 42.6932 26.3217 43.1561 26.7859 43.9624Z" fill="white"/>
<path d="M32.0093 47.9715C31.6525 47.6021 31.6012 47.5705 31.352 47.1301C31.1326 46.7422 30.8641 46.3015 30.8177 45.8432C30.7413 45.0898 31.0046 44.087 30.7691 43.3685C30.5336 42.65 29.9433 41.933 29.2147 41.6362C28.4932 41.3421 27.9032 41.2897 27.1745 41.5372C26.3846 41.8055 25.7173 42.5589 25.7173 42.626C25.7172 42.6932 26.3217 43.1561 26.7859 43.9624C27.1792 44.6454 27.2047 44.9926 27.3203 45.6947C27.3509 45.8807 27.325 45.772 27.3208 46.0981C27.32 46.1589 27.3162 46.2198 27.3095 46.2802C27.2873 46.4813 27.2442 46.9536 27.3203 47.0311C27.4161 47.1288 28.2465 47.0337 28.7819 46.9361C28.7963 46.9334 28.8103 46.9311 28.8248 46.929C28.9697 46.9083 29.811 46.7967 30.1862 46.9321C30.5975 47.0806 31.7283 47.6805 32.0093 47.9715ZM32.0093 47.9715L32.4465 48.417M32.4465 48.417C33.0184 48.811 33.5799 49.1988 34.2665 49.2089C34.7931 49.2166 35.3914 49.0109 35.918 49.0109C36.1088 49.0109 36.838 49.0487 37.4724 49.5058C38.0802 49.9437 38.6382 50.7432 38.7354 51.3866C38.8325 52.0301 38.6382 52.624 38.4439 53.119C38.2496 53.6139 37.6513 54.2573 37.6182 54.2573C37.585 54.2573 37.4734 54.1707 37.0962 53.7339C36.719 53.2972 35.5743 52.6912 35.0437 52.624C34.863 52.6011 34.4855 52.4755 34.1208 52.4755C33.0264 52.4755 33.2527 52.5091 33.2237 52.4755C33.1963 52.4437 33.2237 51.7826 33.295 50.7432C33.3535 49.8909 32.6404 48.7371 32.4465 48.417Z" stroke="white" stroke-width="0.7"/>
<path d="M21.3714 45.1009C21.9633 46.0976 22.1574 46.6925 22.3429 47.7241C22.3962 48.0203 22.3915 48.7054 22.3429 49.407C22.3122 49.8513 22.0965 50.6957 22.1486 50.7928C22.1879 50.866 23.2016 50.6112 23.4602 50.5453C23.8808 50.4381 23.9613 50.4332 24.2859 50.4463C24.839 50.4687 24.9692 50.4938 25.5003 50.6443L25.646 50.6938C26.4093 50.9102 27.4621 51.5587 27.8805 51.9806C27.3493 51.445 26.7124 50.5893 26.4232 49.9018C26.2775 49.5554 26.0955 48.9614 26.0533 48.7054C25.8666 47.5733 26.2289 46.3877 25.9375 45.2988C25.646 44.2099 25.2348 43.603 24.3345 42.9726C23.3946 42.3144 22.6517 42.2262 21.5172 42.3292C20.3022 42.4396 19.5241 43.0221 19.5256 43.1211C19.5271 43.2201 20.6727 43.9244 21.3714 45.1009Z" fill="white"/>
<path d="M31.2807 53.9605C30.2749 53.9622 29.2236 53.0435 28.3768 52.4769C28.6683 52.9438 29.6875 54.3489 29.6923 55.2554C29.702 57.0632 29.4911 57.558 29.532 57.6041C29.5753 57.6529 30.0178 57.3572 31.9122 57.3261C32.4465 57.3173 33.1529 57.5747 33.418 57.6041C34.1967 57.6903 35.8185 58.7706 36.3811 59.4049C36.9438 60.0392 37.117 60.4069 37.1656 60.4061C37.2142 60.4053 37.8569 59.1572 37.9114 58.4138C37.9659 57.6704 37.9819 57.4879 37.689 56.6354C37.3961 55.7829 36.9414 55.0363 36.0411 54.4059C35.1012 53.7478 34.086 53.7084 33.8066 53.713C33.0353 53.7257 32.0522 53.9591 31.2807 53.9605Z" fill="white"/>
<path d="M27.8805 51.9806C27.3493 51.445 26.7124 50.5893 26.4232 49.9018C26.2775 49.5554 26.0955 48.9614 26.0533 48.7054C25.8666 47.5733 26.2289 46.3877 25.9375 45.2988C25.646 44.2099 25.2348 43.603 24.3345 42.9726C23.3946 42.3144 22.6517 42.2262 21.5172 42.3292C20.3022 42.4396 19.5241 43.0221 19.5256 43.1211C19.5271 43.2201 20.6727 43.9244 21.3714 45.1009C21.9633 46.0976 22.1574 46.6925 22.3429 47.7241C22.3962 48.0203 22.3915 48.7054 22.3429 49.407C22.3122 49.8513 22.0965 50.6957 22.1486 50.7928C22.1879 50.866 23.2016 50.6112 23.4602 50.5453C23.8808 50.4381 23.9613 50.4332 24.2859 50.4463C24.839 50.4687 24.9692 50.4938 25.5003 50.6443M27.8805 51.9806C27.4621 51.5587 26.4093 50.9102 25.646 50.6938M27.8805 51.9806C28.213 52.3099 27.6921 51.8187 28.0247 52.1481C28.3572 52.4774 28.0443 52.1475 28.3768 52.4769M28.3768 52.4769C29.2236 53.0435 30.2749 53.9622 31.2807 53.9605C32.0522 53.9591 33.0353 53.7257 33.8066 53.713C34.086 53.7084 35.1012 53.7478 36.0411 54.4059C36.9414 55.0363 37.3961 55.7829 37.689 56.6354C37.9818 57.4879 37.9659 57.6704 37.9114 58.4138C37.8569 59.1572 37.2142 60.4053 37.1656 60.4061C37.117 60.4069 36.9438 60.0392 36.3811 59.4049C35.8185 58.7706 34.1967 57.6903 33.418 57.6041C33.1529 57.5747 32.4465 57.3173 31.9122 57.3261C30.0178 57.3572 29.5753 57.6529 29.532 57.6041C29.4911 57.558 29.702 57.0632 29.6923 55.2554C29.6875 54.3489 28.6683 52.9438 28.3768 52.4769ZM25.646 50.6938L25.5003 50.6443M25.646 50.6938C25.6433 50.6931 25.503 50.6451 25.5003 50.6443" stroke="white" stroke-width="0.3"/>
<path d="M10.0069 48.595C9.94597 50.1829 10.2852 51.1851 11.2212 52.4556C11.6016 52.9718 11.8387 53.0985 12.3385 53.495C13.0483 54.058 14.129 54.3284 14.3416 54.3775C14.3666 54.3833 14.3906 54.3877 14.4161 54.3914C14.6191 54.4211 15.6035 54.5578 16.2687 54.5179C16.8608 54.4823 17.8901 54.0684 18.9438 54.1281C19.6997 54.1709 20.1203 54.2973 20.8434 54.5145L20.8545 54.5178C21.6255 54.7495 22.3647 55.0384 22.9278 55.6232C22.2129 54.8808 21.9212 54.3307 21.422 53.4455C20.9823 52.6659 21.0779 51.9907 20.9848 51.0697C20.8318 49.5556 21.4567 48.7027 20.9848 47.2586C20.5129 45.8146 20.0652 45.07 18.8475 44.1899C17.5762 43.2712 16.7098 43.0354 15.1558 43.1506C13.4916 43.2739 12.6337 43.6224 11.5127 44.8829C10.4327 46.0971 10.0697 46.9568 10.0069 48.595Z" fill="white"/>
<path d="M28.5139 58.9394C27.1382 58.9192 25.8224 58.098 24.6765 57.306C24.6765 57.306 26.569 60.0482 26.2795 61.7805C25.9899 63.5128 25.6745 64.6255 26.2795 66.2646C26.6469 67.26 27.1034 67.9673 27.7332 68.5497C29.0273 69.7462 30.1716 70.1003 31.9142 69.9767C33.3805 69.8727 34.1371 69.5664 35.2173 68.5497C36.0081 67.8053 36.2924 67.2421 36.6745 66.4626C37.0567 65.683 37.2995 63.9198 36.9174 62.7505C36.5352 61.5811 35.9006 60.4134 34.683 59.5333C33.4117 58.6145 32.1992 58.5929 31.817 58.5929C30.7618 58.5929 29.5691 58.9548 28.5139 58.9394Z" fill="white"/>
<path d="M22.9278 55.6232C22.2129 54.8808 21.9212 54.3307 21.422 53.4455C20.9823 52.6659 21.0779 51.9907 20.9848 51.0697C20.8318 49.5556 21.4567 48.7027 20.9848 47.2586C20.5129 45.8146 20.0652 45.07 18.8475 44.1899C17.5762 43.2712 16.7098 43.0354 15.1558 43.1506C13.4916 43.2739 12.6337 43.6224 11.5127 44.8829C10.4327 46.0971 10.0697 46.9568 10.0069 48.595C9.94597 50.1829 10.2852 51.1851 11.2212 52.4556C11.6016 52.9718 11.8387 53.0985 12.3385 53.495C13.0483 54.058 14.129 54.3284 14.3416 54.3775C14.3666 54.3833 14.3906 54.3877 14.4161 54.3914C14.6191 54.4211 15.6035 54.5578 16.2687 54.5179C16.8608 54.4823 17.8901 54.0684 18.9438 54.1281C19.6997 54.1709 20.1203 54.2973 20.8434 54.5145M22.9278 55.6232C22.3647 55.0384 21.6255 54.7495 20.8545 54.5178M22.9278 55.6232C23.3755 56.0799 23.743 56.3544 24.1908 56.8111C24.6384 57.2677 24.2288 56.8494 24.6765 57.306M24.6765 57.306C25.8224 58.098 27.1382 58.9192 28.5139 58.9394C29.5691 58.9548 30.7618 58.5929 31.817 58.5929C32.1992 58.5929 33.4117 58.6145 34.683 59.5333C35.9006 60.4133 36.5352 61.5811 36.9174 62.7505C37.2995 63.9198 37.0567 65.683 36.6745 66.4626C36.2924 67.2421 36.0081 67.8053 35.2173 68.5497C34.1371 69.5664 33.3805 69.8727 31.9142 69.9767C30.1716 70.1003 29.0273 69.7462 27.7332 68.5497C27.1034 67.9673 26.6469 67.26 26.2795 66.2646C25.6745 64.6255 25.9899 63.5128 26.2795 61.7805C26.569 60.0482 24.6765 57.306 24.6765 57.306ZM20.8545 54.5178L20.8434 54.5145M20.8545 54.5178C20.8508 54.5167 20.8471 54.5156 20.8434 54.5145" stroke="white" stroke-width="0.7"/>
<path d="M45.7335 49.2089C46.4201 49.1988 46.9816 48.811 47.5535 48.417C47.3596 48.7371 46.6465 49.8909 46.705 50.7432C46.7763 51.7826 46.8037 52.4437 46.7763 52.4755C46.7473 52.5091 46.9736 52.4755 45.8792 52.4755C45.5145 52.4755 45.137 52.6011 44.9563 52.624C44.4257 52.6912 43.281 53.2972 42.9038 53.7339C42.5266 54.1707 42.415 54.2573 42.3818 54.2573C42.3487 54.2573 41.7504 53.6139 41.5561 53.1189C41.3618 52.624 41.1675 52.0301 41.2646 51.3866C41.3618 50.7432 41.9198 49.9437 42.5276 49.5058C43.162 49.0487 43.8912 49.0109 44.082 49.0109C44.6086 49.0109 45.2069 49.2166 45.7335 49.2089Z" fill="white"/>
<path d="M53.2141 43.9624C52.8208 44.6454 52.7953 44.9926 52.6797 45.6947C52.6491 45.8807 52.675 45.772 52.6792 46.0981C52.68 46.1589 52.6838 46.2198 52.6905 46.2802C52.7127 46.4813 52.7558 46.9536 52.6797 47.0311C52.5839 47.1288 51.7535 47.0337 51.2181 46.9361C51.2037 46.9334 51.1897 46.9311 51.1752 46.929C51.0303 46.9083 50.189 46.7967 49.8138 46.9321C49.4025 47.0806 48.2717 47.6805 47.9907 47.9715C48.3475 47.6021 48.3988 47.5705 48.648 47.1301C48.8674 46.7422 49.1359 46.3015 49.1823 45.8432C49.2587 45.0898 48.9954 44.087 49.2309 43.3685C49.4664 42.65 50.0567 41.933 50.7853 41.6362C51.5068 41.3421 52.0968 41.2897 52.8255 41.5372C53.6154 41.8055 54.2827 42.5589 54.2827 42.626C54.2828 42.6932 53.6783 43.1561 53.2141 43.9624Z" fill="white"/>
<path d="M47.9907 47.9715C48.3475 47.6021 48.3988 47.5705 48.648 47.1301C48.8674 46.7422 49.1359 46.3015 49.1823 45.8432C49.2587 45.0898 48.9954 44.087 49.2309 43.3685C49.4664 42.65 50.0567 41.933 50.7853 41.6362C51.5068 41.3421 52.0968 41.2897 52.8255 41.5372C53.6154 41.8055 54.2827 42.5589 54.2827 42.626C54.2828 42.6932 53.6783 43.1561 53.2141 43.9624C52.8208 44.6454 52.7953 44.9926 52.6797 45.6947C52.6491 45.8807 52.675 45.772 52.6792 46.0981C52.68 46.1589 52.6838 46.2198 52.6905 46.2802C52.7127 46.4813 52.7558 46.9536 52.6797 47.0311C52.5839 47.1288 51.7535 47.0337 51.2181 46.9361C51.2037 46.9334 51.1897 46.9311 51.1752 46.929C51.0303 46.9083 50.189 46.7967 49.8138 46.9321C49.4025 47.0806 48.2717 47.6805 47.9907 47.9715ZM47.9907 47.9715L47.5535 48.417M47.5535 48.417C46.9816 48.811 46.4201 49.1988 45.7335 49.2089C45.2069 49.2166 44.6086 49.0109 44.082 49.0109C43.8912 49.0109 43.162 49.0487 42.5276 49.5058C41.9198 49.9437 41.3618 50.7432 41.2646 51.3866C41.1675 52.0301 41.3618 52.624 41.5561 53.119C41.7504 53.6139 42.3487 54.2573 42.3818 54.2573C42.415 54.2573 42.5266 54.1707 42.9038 53.7339C43.281 53.2972 44.4257 52.6912 44.9563 52.624C45.137 52.6011 45.5145 52.4755 45.8792 52.4755C46.9736 52.4755 46.7473 52.5091 46.7763 52.4755C46.8037 52.4437 46.7763 51.7826 46.705 50.7432C46.6465 49.8909 47.3596 48.7371 47.5535 48.417Z" stroke="white" stroke-width="0.7"/>
<path d="M58.6286 45.1009C58.0367 46.0976 57.8426 46.6925 57.6571 47.7241C57.6038 48.0203 57.6085 48.7054 57.6571 49.407C57.6878 49.8513 57.9035 50.6957 57.8514 50.7928C57.8121 50.866 56.7984 50.6112 56.5398 50.5453C56.1192 50.4381 56.0387 50.4332 55.7141 50.4463C55.161 50.4687 55.0308 50.4938 54.4997 50.6443L54.354 50.6938C53.5907 50.9102 52.5379 51.5587 52.1195 51.9806C52.6507 51.445 53.2876 50.5893 53.5768 49.9018C53.7225 49.5554 53.9045 48.9614 53.9467 48.7054C54.1334 47.5733 53.7711 46.3877 54.0625 45.2988C54.354 44.2099 54.7652 43.603 55.6655 42.9726C56.6054 42.3144 57.3483 42.2262 58.4828 42.3292C59.6978 42.4396 60.4759 43.0221 60.4744 43.1211C60.4729 43.2201 59.3273 43.9244 58.6286 45.1009Z" fill="white"/>
<path d="M48.7193 53.9605C49.7251 53.9622 50.7764 53.0435 51.6232 52.4769C51.3317 52.9438 50.3125 54.3489 50.3077 55.2554C50.298 57.0632 50.5089 57.558 50.468 57.6041C50.4247 57.6529 49.9822 57.3572 48.0878 57.3261C47.5535 57.3173 46.8471 57.5747 46.582 57.6041C45.8033 57.6903 44.1815 58.7706 43.6189 59.4049C43.0562 60.0392 42.883 60.4069 42.8344 60.4061C42.7858 60.4053 42.1431 59.1572 42.0886 58.4138C42.0341 57.6704 42.0181 57.4879 42.311 56.6354C42.6039 55.7829 43.0586 55.0363 43.9589 54.4059C44.8988 53.7478 45.914 53.7084 46.1934 53.713C46.9647 53.7257 47.9478 53.9591 48.7193 53.9605Z" fill="white"/>
<path d="M52.1195 51.9806C52.6507 51.445 53.2876 50.5893 53.5768 49.9018C53.7225 49.5554 53.9045 48.9614 53.9467 48.7054C54.1334 47.5733 53.7711 46.3877 54.0625 45.2988C54.354 44.2099 54.7652 43.603 55.6655 42.9726C56.6054 42.3144 57.3483 42.2262 58.4828 42.3292C59.6978 42.4396 60.4759 43.0221 60.4744 43.1211C60.4729 43.2201 59.3273 43.9244 58.6286 45.1009C58.0367 46.0976 57.8426 46.6925 57.6571 47.7241C57.6038 48.0203 57.6085 48.7054 57.6571 49.407C57.6878 49.8513 57.9035 50.6957 57.8514 50.7928C57.8121 50.866 56.7984 50.6112 56.5398 50.5453C56.1192 50.4381 56.0387 50.4332 55.7141 50.4463C55.161 50.4687 55.0308 50.4938 54.4997 50.6443M52.1195 51.9806C52.5379 51.5587 53.5907 50.9102 54.354 50.6938M52.1195 51.9806C51.787 52.3099 52.3079 51.8187 51.9753 52.1481C51.6428 52.4774 51.9557 52.1475 51.6232 52.4769M51.6232 52.4769C50.7764 53.0435 49.7251 53.9622 48.7193 53.9605C47.9478 53.9591 46.9647 53.7257 46.1934 53.713C45.914 53.7084 44.8988 53.7478 43.9589 54.4059C43.0586 55.0363 42.6039 55.7829 42.311 56.6354C42.0182 57.4879 42.0341 57.6704 42.0886 58.4138C42.1431 59.1572 42.7858 60.4053 42.8344 60.4061C42.883 60.4069 43.0562 60.0392 43.6189 59.4049C44.1815 58.7706 45.8033 57.6903 46.582 57.6041C46.8471 57.5747 47.5535 57.3173 48.0878 57.3261C49.9822 57.3572 50.4247 57.6529 50.468 57.6041C50.5089 57.558 50.298 57.0632 50.3077 55.2554C50.3125 54.3489 51.3317 52.9438 51.6232 52.4769ZM54.354 50.6938L54.4997 50.6443M54.354 50.6938C54.3567 50.6931 54.497 50.6451 54.4997 50.6443" stroke="white" stroke-width="0.3"/>
<path d="M69.9931 48.595C70.054 50.1829 69.7148 51.1851 68.7788 52.4556C68.3984 52.9718 68.1613 53.0985 67.6615 53.495C66.9517 54.058 65.871 54.3284 65.6584 54.3775C65.6334 54.3833 65.6094 54.3877 65.5839 54.3914C65.3809 54.4211 64.3965 54.5578 63.7313 54.5179C63.1392 54.4823 62.1099 54.0684 61.0562 54.1281C60.3003 54.1709 59.8797 54.2973 59.1566 54.5145L59.1455 54.5178C58.3745 54.7495 57.6353 55.0384 57.0722 55.6232C57.7871 54.8808 58.0788 54.3307 58.578 53.4455C59.0177 52.6659 58.9221 51.9907 59.0152 51.0697C59.1682 49.5556 58.5433 48.7027 59.0152 47.2586C59.4871 45.8146 59.9348 45.07 61.1525 44.1899C62.4238 43.2712 63.2902 43.0354 64.8442 43.1506C66.5084 43.2739 67.3663 43.6224 68.4873 44.8829C69.5673 46.0971 69.9303 46.9568 69.9931 48.595Z" fill="white"/>
<path d="M51.4861 58.9394C52.8618 58.9192 54.1776 58.098 55.3235 57.306C55.3235 57.306 53.431 60.0482 53.7205 61.7805C54.0101 63.5128 54.3255 64.6255 53.7205 66.2646C53.3531 67.26 52.8966 67.9673 52.2668 68.5497C50.9727 69.7462 49.8284 70.1003 48.0858 69.9767C46.6195 69.8727 45.8629 69.5664 44.7827 68.5497C43.9919 67.8053 43.7076 67.2421 43.3255 66.4626C42.9433 65.683 42.7005 63.9198 43.0826 62.7505C43.4648 61.5811 44.0994 60.4134 45.317 59.5333C46.5883 58.6145 47.8008 58.5929 48.183 58.5929C49.2382 58.5929 50.4309 58.9548 51.4861 58.9394Z" fill="white"/>
<path d="M57.0722 55.6232C57.7871 54.8808 58.0788 54.3307 58.578 53.4455C59.0177 52.6659 58.9221 51.9907 59.0152 51.0697C59.1682 49.5556 58.5433 48.7027 59.0152 47.2586C59.4871 45.8146 59.9348 45.07 61.1525 44.1899C62.4238 43.2712 63.2902 43.0354 64.8442 43.1506C66.5084 43.2739 67.3663 43.6224 68.4873 44.8829C69.5673 46.0971 69.9303 46.9568 69.9931 48.595C70.054 50.1829 69.7148 51.1851 68.7788 52.4556C68.3984 52.9718 68.1613 53.0985 67.6615 53.495C66.9517 54.058 65.871 54.3284 65.6584 54.3775C65.6334 54.3833 65.6094 54.3877 65.5839 54.3914C65.3809 54.4211 64.3965 54.5578 63.7313 54.5179C63.1392 54.4823 62.1099 54.0684 61.0562 54.1281C60.3003 54.1709 59.8797 54.2973 59.1566 54.5145M57.0722 55.6232C57.6353 55.0384 58.3745 54.7495 59.1455 54.5178M57.0722 55.6232C56.6245 56.0799 56.257 56.3544 55.8092 56.8111C55.3616 57.2677 55.7712 56.8494 55.3235 57.306M55.3235 57.306C54.1776 58.098 52.8618 58.9192 51.4861 58.9394C50.4309 58.9548 49.2382 58.5929 48.183 58.5929C47.8008 58.5929 46.5883 58.6145 45.317 59.5333C44.0994 60.4133 43.4648 61.5811 43.0826 62.7505C42.7005 63.9198 42.9433 65.683 43.3255 66.4626C43.7076 67.2421 43.9919 67.8053 44.7827 68.5497C45.8629 69.5664 46.6195 69.8727 48.0858 69.9767C49.8284 70.1003 50.9727 69.7462 52.2668 68.5497C52.8966 67.9673 53.3531 67.26 53.7205 66.2646C54.3255 64.6255 54.0101 63.5128 53.7205 61.7805C53.431 60.0482 55.3235 57.306 55.3235 57.306ZM59.1455 54.5178L59.1566 54.5145M59.1455 54.5178C59.1492 54.5167 59.1529 54.5156 59.1566 54.5145" stroke="white" stroke-width="0.7"/>
<path d="M34.2665 30.7911C33.5799 30.8012 33.0184 31.189 32.4465 31.583C32.6404 31.2629 33.3535 30.1091 33.295 29.2568C33.2237 28.2174 33.1963 27.5563 33.2237 27.5245C33.2527 27.4909 33.0264 27.5245 34.1208 27.5245C34.4855 27.5245 34.863 27.3989 35.0437 27.376C35.5743 27.3088 36.719 26.7028 37.0962 26.2661C37.4734 25.8293 37.585 25.7427 37.6182 25.7427C37.6513 25.7427 38.2496 26.3861 38.4439 26.8811C38.6382 27.376 38.8325 27.9699 38.7354 28.6134C38.6382 29.2568 38.0802 30.0563 37.4724 30.4942C36.838 30.9513 36.1088 30.9891 35.918 30.9891C35.3914 30.9891 34.7931 30.7834 34.2665 30.7911Z" fill="white"/>
<path d="M26.7859 36.0376C27.1792 35.3546 27.2047 35.0074 27.3203 34.3053C27.3509 34.1193 27.325 34.228 27.3208 33.9019C27.32 33.8411 27.3162 33.7802 27.3095 33.7198C27.2873 33.5187 27.2442 33.0464 27.3203 32.9689C27.4161 32.8712 28.2465 32.9663 28.7819 33.0639C28.7963 33.0666 28.8103 33.0689 28.8248 33.071C28.9697 33.0917 29.811 33.2033 30.1862 33.0679C30.5975 32.9194 31.7283 32.3195 32.0093 32.0285C31.6525 32.3979 31.6012 32.4295 31.352 32.8699C31.1326 33.2578 30.8641 33.6985 30.8177 34.1568C30.7413 34.9102 31.0046 35.913 30.7691 36.6315C30.5336 37.35 29.9433 38.067 29.2147 38.3638C28.4932 38.6579 27.9032 38.7103 27.1745 38.4628C26.3846 38.1945 25.7173 37.4411 25.7173 37.374C25.7172 37.3068 26.3217 36.8439 26.7859 36.0376Z" fill="white"/>
<path d="M32.0093 32.0285C31.6525 32.3979 31.6012 32.4295 31.352 32.8699C31.1326 33.2578 30.8641 33.6985 30.8177 34.1568C30.7413 34.9102 31.0046 35.913 30.7691 36.6315C30.5336 37.35 29.9433 38.067 29.2147 38.3638C28.4932 38.6579 27.9032 38.7103 27.1745 38.4628C26.3846 38.1945 25.7173 37.4411 25.7173 37.374C25.7172 37.3068 26.3217 36.8439 26.7859 36.0376C27.1792 35.3546 27.2047 35.0074 27.3203 34.3053C27.3509 34.1193 27.325 34.228 27.3208 33.9019C27.32 33.8411 27.3162 33.7802 27.3095 33.7198C27.2873 33.5187 27.2442 33.0464 27.3203 32.9689C27.4161 32.8712 28.2465 32.9663 28.7819 33.0639C28.7963 33.0666 28.8103 33.0689 28.8248 33.071C28.9697 33.0917 29.811 33.2033 30.1862 33.0679C30.5975 32.9194 31.7283 32.3195 32.0093 32.0285ZM32.0093 32.0285L32.4465 31.583M32.4465 31.583C33.0184 31.189 33.5799 30.8012 34.2665 30.7911C34.7931 30.7834 35.3914 30.9891 35.918 30.9891C36.1088 30.9891 36.838 30.9513 37.4724 30.4942C38.0802 30.0563 38.6382 29.2568 38.7354 28.6134C38.8325 27.9699 38.6382 27.376 38.4439 26.881C38.2496 26.3861 37.6513 25.7427 37.6182 25.7427C37.585 25.7427 37.4734 25.8293 37.0962 26.2661C36.719 26.7028 35.5743 27.3088 35.0437 27.376C34.863 27.3989 34.4855 27.5245 34.1208 27.5245C33.0264 27.5245 33.2527 27.4909 33.2237 27.5245C33.1963 27.5563 33.2237 28.2174 33.295 29.2568C33.3535 30.1091 32.6404 31.2629 32.4465 31.583Z" stroke="white" stroke-width="0.7"/>
<path d="M21.3714 34.8991C21.9633 33.9024 22.1574 33.3075 22.3429 32.2759C22.3962 31.9797 22.3915 31.2946 22.3429 30.593C22.3122 30.1487 22.0965 29.3043 22.1486 29.2072C22.1879 29.134 23.2016 29.3888 23.4602 29.4547C23.8808 29.5619 23.9613 29.5668 24.2859 29.5537C24.839 29.5313 24.9692 29.5062 25.5003 29.3557L25.646 29.3062C26.4093 29.0898 27.4621 28.4413 27.8805 28.0194C27.3493 28.555 26.7124 29.4107 26.4232 30.0982C26.2775 30.4446 26.0955 31.0386 26.0533 31.2946C25.8666 32.4267 26.2289 33.6123 25.9375 34.7012C25.646 35.7901 25.2348 36.397 24.3345 37.0274C23.3946 37.6856 22.6517 37.7738 21.5172 37.6708C20.3022 37.5604 19.5241 36.9779 19.5256 36.8789C19.5271 36.7799 20.6727 36.0756 21.3714 34.8991Z" fill="white"/>
<path d="M31.2807 26.0395C30.2749 26.0378 29.2236 26.9565 28.3768 27.5231C28.6683 27.0562 29.6875 25.6511 29.6923 24.7446C29.702 22.9368 29.4911 22.442 29.532 22.3959C29.5753 22.3471 30.0178 22.6428 31.9122 22.6739C32.4465 22.6827 33.1529 22.4253 33.418 22.3959C34.1967 22.3097 35.8185 21.2294 36.3811 20.5951C36.9438 19.9608 37.117 19.5931 37.1656 19.5939C37.2142 19.5947 37.8569 20.8428 37.9114 21.5862C37.9659 22.3296 37.9819 22.5121 37.689 23.3646C37.3961 24.2171 36.9414 24.9637 36.0411 25.5941C35.1012 26.2522 34.086 26.2916 33.8066 26.287C33.0353 26.2743 32.0522 26.0409 31.2807 26.0395Z" fill="white"/>
<path d="M27.8805 28.0194C27.3493 28.555 26.7124 29.4107 26.4232 30.0982C26.2775 30.4446 26.0955 31.0386 26.0533 31.2946C25.8666 32.4267 26.2289 33.6123 25.9375 34.7012C25.646 35.7901 25.2348 36.397 24.3345 37.0274C23.3946 37.6856 22.6517 37.7738 21.5172 37.6708C20.3022 37.5604 19.5241 36.9779 19.5256 36.8789C19.5271 36.7799 20.6727 36.0756 21.3714 34.8991C21.9633 33.9024 22.1574 33.3075 22.3429 32.2759C22.3962 31.9797 22.3915 31.2946 22.3429 30.593C22.3122 30.1487 22.0965 29.3043 22.1486 29.2072C22.1879 29.134 23.2016 29.3888 23.4602 29.4547C23.8808 29.5619 23.9613 29.5668 24.2859 29.5537C24.839 29.5313 24.9692 29.5062 25.5003 29.3557M27.8805 28.0194C27.4621 28.4413 26.4093 29.0898 25.646 29.3062M27.8805 28.0194C28.213 27.6901 27.6921 28.1813 28.0247 27.8519C28.3572 27.5226 28.0443 27.8525 28.3768 27.5231M28.3768 27.5231C29.2236 26.9565 30.2749 26.0378 31.2807 26.0395C32.0522 26.0409 33.0353 26.2743 33.8066 26.287C34.086 26.2916 35.1012 26.2522 36.0411 25.5941C36.9414 24.9637 37.3961 24.2171 37.689 23.3646C37.9818 22.5121 37.9659 22.3296 37.9114 21.5862C37.8569 20.8428 37.2142 19.5947 37.1656 19.5939C37.117 19.5931 36.9438 19.9608 36.3811 20.5951C35.8185 21.2294 34.1967 22.3097 33.418 22.3959C33.1529 22.4253 32.4465 22.6827 31.9122 22.6739C30.0178 22.6428 29.5753 22.3471 29.532 22.3959C29.4911 22.442 29.702 22.9368 29.6923 24.7446C29.6875 25.6511 28.6683 27.0562 28.3768 27.5231ZM25.646 29.3062L25.5003 29.3557M25.646 29.3062C25.6433 29.3069 25.503 29.3549 25.5003 29.3557" stroke="white" stroke-width="0.3"/>
<path d="M10.0069 31.405C9.94597 29.8171 10.2852 28.8149 11.2212 27.5444C11.6016 27.0282 11.8387 26.9015 12.3385 26.505C13.0483 25.942 14.129 25.6716 14.3416 25.6225C14.3666 25.6167 14.3906 25.6123 14.4161 25.6086C14.6191 25.5789 15.6035 25.4422 16.2687 25.4821C16.8608 25.5177 17.8901 25.9316 18.9438 25.8719C19.6997 25.8291 20.1203 25.7027 20.8434 25.4855L20.8545 25.4822C21.6255 25.2505 22.3647 24.9616 22.9278 24.3768C22.2129 25.1192 21.9212 25.6693 21.422 26.5545C20.9823 27.3341 21.0779 28.0093 20.9848 28.9303C20.8318 30.4444 21.4567 31.2973 20.9848 32.7414C20.5129 34.1854 20.0652 34.93 18.8475 35.8101C17.5762 36.7288 16.7098 36.9646 15.1558 36.8494C13.4916 36.7261 12.6337 36.3776 11.5127 35.1171C10.4327 33.9029 10.0697 33.0432 10.0069 31.405Z" fill="white"/>
<path d="M28.5139 21.0606C27.1382 21.0808 25.8224 21.902 24.6765 22.694C24.6765 22.694 26.569 19.9518 26.2795 18.2195C25.9899 16.4872 25.6745 15.3745 26.2795 13.7354C26.6469 12.74 27.1034 12.0327 27.7332 11.4503C29.0273 10.2538 30.1716 9.89967 31.9142 10.0233C33.3805 10.1273 34.1371 10.4336 35.2173 11.4503C36.0081 12.1947 36.2924 12.7579 36.6745 13.5374C37.0567 14.317 37.2995 16.0802 36.9174 17.2495C36.5352 18.4189 35.9006 19.5866 34.683 20.4667C33.4117 21.3855 32.1992 21.4071 31.817 21.4071C30.7618 21.4071 29.5691 21.0452 28.5139 21.0606Z" fill="white"/>
<path d="M22.9278 24.3768C22.2129 25.1192 21.9212 25.6693 21.422 26.5545C20.9823 27.3341 21.0779 28.0093 20.9848 28.9303C20.8318 30.4444 21.4567 31.2973 20.9848 32.7414C20.5129 34.1854 20.0652 34.93 18.8475 35.8101C17.5762 36.7288 16.7098 36.9646 15.1558 36.8494C13.4916 36.7261 12.6337 36.3776 11.5127 35.1171C10.4327 33.9029 10.0697 33.0432 10.0069 31.405C9.94597 29.8171 10.2852 28.8149 11.2212 27.5444C11.6016 27.0282 11.8387 26.9015 12.3385 26.505C13.0483 25.942 14.129 25.6716 14.3416 25.6225C14.3666 25.6167 14.3906 25.6123 14.4161 25.6086C14.6191 25.5789 15.6035 25.4422 16.2687 25.4821C16.8608 25.5177 17.8901 25.9316 18.9438 25.8719C19.6997 25.8291 20.1203 25.7027 20.8434 25.4855M22.9278 24.3768C22.3647 24.9616 21.6255 25.2505 20.8545 25.4822M22.9278 24.3768C23.3755 23.9201 23.743 23.6456 24.1908 23.1889C24.6384 22.7323 24.2288 23.1506 24.6765 22.694M24.6765 22.694C25.8224 21.902 27.1382 21.0808 28.5139 21.0606C29.5691 21.0452 30.7618 21.4071 31.817 21.4071C32.1992 21.4071 33.4117 21.3855 34.683 20.4667C35.9006 19.5867 36.5352 18.4189 36.9174 17.2495C37.2995 16.0802 37.0567 14.317 36.6745 13.5374C36.2924 12.7579 36.0081 12.1947 35.2173 11.4503C34.1371 10.4336 33.3805 10.1273 31.9142 10.0233C30.1716 9.89967 29.0273 10.2538 27.7332 11.4503C27.1034 12.0327 26.6469 12.74 26.2795 13.7354C25.6745 15.3745 25.9899 16.4872 26.2795 18.2195C26.569 19.9518 24.6765 22.694 24.6765 22.694ZM20.8545 25.4822L20.8434 25.4855M20.8545 25.4822C20.8508 25.4833 20.8471 25.4844 20.8434 25.4855" stroke="white" stroke-width="0.7"/>
<path d="M37.7932 42.0743C36.6548 40.8878 36.6654 39.0113 37.8172 37.8378C39.0048 36.6277 40.9525 36.6222 42.147 37.8255C43.3149 39.002 43.3258 40.8972 42.1713 42.0869C40.9716 43.3231 38.9857 43.3174 37.7932 42.0743Z" fill="white" stroke="white" stroke-width="2.6"/>
</svg>
